<svg xmlns="http://www.w3.org/2000/svg" width="32" height="32" viewBox="0 0 32 32" fill="none">
  <rect width="32" height="32" rx="16" fill="url(#paint0_linear_1201_2)" />
  <path d="M10.056 21V11.448H13.2C13.8107 11.448 14.336 11.5413 14.776 11.728C15.216 11.9147 15.552 12.1653 15.784 12.48C16.0267 12.7947 16.148 13.1467 16.148 13.536C16.148 13.856 16.0747 14.1493 15.928 14.416C15.7813 14.6827 15.58 14.9067 15.324 15.088C15.0787 15.2693 14.8067 15.3947 14.508 15.464V15.536C14.8493 15.5573 15.1693 15.6613 15.468 15.848C15.7667 16.0347 16.008 16.2853 16.192 16.6C16.3867 16.9147 16.484 17.2773 16.484 17.688C16.484 18.0987 16.3547 18.476 16.096 18.82C15.848 19.164 15.492 19.4373 15.028 19.64C14.564 19.8427 14.0213 19.944 13.4 19.944H10.056V21ZM11.544 18.468H13.092C13.7027 18.468 14.1507 18.3533 14.436 18.124C14.7213 17.8947 14.864 17.5907 14.864 17.212C14.864 16.9347 14.8013 16.684 14.676 16.46C14.5507 16.236 14.3667 16.0573 14.124 15.924C13.892 15.7907 13.608 15.724 13.272 15.724H11.544V18.468ZM11.544 14.472H12.96C13.232 14.472 13.476 14.416 13.692 14.304C13.9187 14.1813 14.096 14.0187 14.224 13.816C14.352 13.6133 14.416 13.3853 14.416 13.132C14.416 12.7853 14.284 12.4973 14.02 12.268C13.7667 12.0387 13.3933 11.924 12.9 11.924H11.544V14.472ZM18.1558 21V11.448H19.6438V20.524H24.4358V21H18.1558Z" fill="white" />
  <defs>
    <linearGradient id="paint0_linear_1201_2" x1="0" y1="0" x2="32" y2="32" gradientUnits="userSpaceOnUse">
      <stop stop-color="#0984E3" />
      <stop offset="1" stop-color="#74B9FF" />
    </linearGradient>
  </defs>
</svg>